<svg xmlns="http://www.w3.org/2000/svg" xmlns:xlink="http://www.w3.org/1999/xlink" width="540" height="450" viewBox="0 0 540 450"><rect width="100%" height="100%" fill="#DDDDDD"/><path d="M125.31 228.81L125.31 228.81Q125.31 227.05 124.06 225.98Q122.81 224.91 119.68 223.96L119.68 223.96Q114.22 222.39 111.43 220.22Q108.64 218.06 108.64 214.30L108.64 214.30Q108.64 210.54 111.84 208.16Q115.04 205.78 120.02 205.78L120.02 205.78Q125.05 205.78 128.23 208.46Q131.40 211.13 131.29 215.06L131.29 215.06L131.25 215.18L125.31 215.18Q125.31 213.06 123.89 211.75Q122.47 210.44 119.91 210.44L119.91 210.44Q117.45 210.44 116.11 211.53Q114.77 212.62 114.77 214.32L114.77 214.32Q114.77 215.88 116.21 216.87Q117.64 217.87 121.17 218.98L121.17 218.98Q126.23 220.39 128.83 222.70Q131.44 225.01 131.44 228.77L131.44 228.77Q131.44 232.70 128.34 234.96Q125.24 237.23 120.16 237.23L120.16 237.23Q115.17 237.23 111.45 234.66Q107.73 232.09 107.84 227.45L107.84 227.45L107.88 227.32L113.84 227.32Q113.84 230.05 115.51 231.32Q117.18 232.59 120.16 232.59L120.16 232.59Q122.66 232.59 123.98 231.56Q125.31 230.53 125.31 228.81ZM142.02 204.04L142.02 236.79L135.89 236.79L135.89 204.04L142.02 204.04ZM153.50 214.07L153.50 236.79L147.37 236.79L147.37 214.07L153.50 214.07ZM153.50 204.04L153.50 208.63L147.37 208.63L147.37 204.04L153.50 204.04ZM172.63 236.79L166.35 227.28L164.67 227.28L164.67 236.79L158.54 236.79L158.54 204.04L164.67 204.04L164.67 222.62L166.19 222.62L171.46 214.07L178.55 214.07L171.29 224.36L179.67 236.79L172.63 236.79ZM201.04 236.79L194.91 236.79Q194.57 236.01 194.33 235.15Q194.09 234.29 193.99 233.39L193.99 233.39Q193.04 235.05 191.50 236.14Q189.95 237.23 187.81 237.23L187.81 237.23Q184.24 237.23 182.31 235.39Q180.38 233.56 180.38 230.39L180.38 230.39Q180.38 227.05 182.95 225.21Q185.52 223.37 190.46 223.37L190.46 223.37L193.88 223.37L193.88 221.57Q193.88 219.93 193.02 219.03Q192.16 218.12 190.48 218.12L190.48 218.12Q188.99 218.12 188.18 218.85Q187.37 219.57 187.37 220.85L187.37 220.85L181.45 220.83L181.43 220.71Q181.28 217.83 183.93 215.74Q186.57 213.65 190.88 213.65L190.88 213.65Q194.95 213.65 197.49 215.72Q200.03 217.79 200.03 221.61L200.03 221.61L200.03 230.99Q200.03 232.59 200.27 234.00Q200.51 235.40 201.04 236.79L201.04 236.79ZM189.30 232.70L189.30 232.70Q190.92 232.70 192.18 231.90Q193.44 231.10 193.88 230.05L193.88 230.05L193.88 226.84L190.46 226.84Q188.51 226.84 187.50 227.81Q186.49 228.79 186.49 230.18L186.49 230.18Q186.49 231.31 187.25 232.00Q188.00 232.70 189.30 232.70ZM215.28 214.07L220.99 214.07L221.26 217.33Q222.39 215.58 224.05 214.62Q225.71 213.65 227.77 213.65L227.77 213.65Q231.21 213.65 233.14 215.81Q235.07 217.98 235.07 222.60L235.07 222.60L235.07 236.79L228.92 236.79L228.92 222.62Q228.92 220.33 228.00 219.37Q227.07 218.42 225.21 218.42L225.21 218.42Q223.99 218.42 223.02 218.91Q222.06 219.40 221.41 220.31L221.41 220.31L221.41 236.79L215.28 236.79L215.28 214.07ZM246.10 214.07L246.10 236.79L239.97 236.79L239.97 214.07L246.10 214.07ZM246.10 204.04L246.10 208.63L239.97 208.63L239.97 204.04L246.10 204.04ZM251.60 214.07L257.75 214.07L257.75 237.63Q257.75 241.62 255.63 243.79Q253.51 245.96 249.73 245.96L249.73 245.96Q248.89 245.96 248.20 245.88Q247.50 245.80 246.73 245.61L246.73 245.61L247.02 240.93Q247.50 241.05 247.99 241.11Q248.47 241.18 249.02 241.18L249.02 241.18Q250.25 241.18 250.93 240.31Q251.60 239.43 251.60 237.63L251.60 237.63L251.60 214.07ZM257.62 204.04L257.62 208.59L251.47 208.59L251.47 204.04L257.62 204.04ZM272.59 237.23L272.59 237.23Q267.68 237.23 264.74 234.08Q261.80 230.93 261.80 226.08L261.80 226.08L261.80 225.24Q261.80 220.18 264.58 216.91Q267.37 213.63 272.05 213.65L272.05 213.65Q276.65 213.65 279.19 216.42Q281.73 219.19 281.73 223.92L281.73 223.92L281.73 227.26L268.16 227.26L268.12 227.38Q268.29 229.63 269.62 231.08Q270.96 232.53 273.25 232.53L273.25 232.53Q275.28 232.53 276.63 232.12Q277.97 231.71 279.57 230.83L279.57 230.83L281.22 234.61Q279.84 235.74 277.59 236.48Q275.34 237.23 272.59 237.23ZM272.05 218.38L272.05 218.38Q270.35 218.38 269.36 219.68Q268.37 220.98 268.14 223.10L268.14 223.10L268.21 223.20L275.72 223.20L275.72 222.66Q275.72 220.71 274.81 219.54Q273.90 218.38 272.05 218.38ZM313.75 217.58L302.85 232.09L314.10 232.09L314.10 236.79L295.23 236.79L295.23 233.18L306.04 218.82L295.56 218.82L295.56 214.07L313.75 214.07L313.75 217.58ZM337.43 236.79L331.30 236.79Q330.96 236.01 330.72 235.15Q330.48 234.29 330.38 233.39L330.38 233.39Q329.43 235.05 327.89 236.14Q326.34 237.23 324.20 237.23L324.20 237.23Q320.63 237.23 318.70 235.39Q316.77 233.56 316.77 230.39L316.77 230.39Q316.77 227.05 319.34 225.21Q321.91 223.37 326.85 223.37L326.85 223.37L330.27 223.37L330.27 221.57Q330.27 219.93 329.41 219.03Q328.55 218.12 326.87 218.12L326.87 218.12Q325.38 218.12 324.57 218.85Q323.76 219.57 323.76 220.85L323.76 220.85L317.84 220.83L317.82 220.71Q317.67 217.83 320.32 215.74Q322.96 213.65 327.27 213.65L327.27 213.65Q331.34 213.65 333.88 215.72Q336.42 217.79 336.42 221.61L336.42 221.61L336.42 230.99Q336.42 232.59 336.66 234.00Q336.91 235.40 337.43 236.79L337.43 236.79ZM325.69 232.70L325.69 232.70Q327.31 232.70 328.57 231.90Q329.83 231.10 330.27 230.05L330.27 230.05L330.27 226.84L326.85 226.84Q324.90 226.84 323.89 227.81Q322.88 228.79 322.88 230.18L322.88 230.18Q322.88 231.31 323.64 232.00Q324.39 232.70 325.69 232.70ZM340.12 226.06L340.12 225.62Q340.12 220.24 342.44 216.95Q344.76 213.65 348.98 213.65L348.98 213.65Q350.68 213.65 352.04 214.39Q353.41 215.12 354.44 216.49L354.44 216.49L354.44 204.04L360.59 204.04L360.59 236.79L355.32 236.79L354.82 234.02Q353.74 235.59 352.29 236.41Q350.83 237.23 348.94 237.23L348.94 237.23Q344.76 237.23 342.44 234.16Q340.12 231.10 340.12 226.06L340.12 226.06ZM346.23 225.62L346.23 226.06Q346.23 229.04 347.24 230.75Q348.24 232.46 350.51 232.46L350.51 232.46Q351.83 232.46 352.82 231.93Q353.81 231.39 354.44 230.36L354.44 230.36L354.44 220.69Q353.81 219.61 352.83 219.02Q351.85 218.42 350.55 218.42L350.55 218.42Q348.31 218.42 347.27 220.41Q346.23 222.41 346.23 225.62L346.23 225.62ZM384.80 236.79L378.67 236.79Q378.33 236.01 378.09 235.15Q377.85 234.29 377.74 233.39L377.74 233.39Q376.80 235.05 375.25 236.14Q373.71 237.23 371.57 237.23L371.57 237.23Q368.00 237.23 366.07 235.39Q364.14 233.56 364.14 230.39L364.14 230.39Q364.14 227.05 366.71 225.21Q369.28 223.37 374.22 223.37L374.22 223.37L377.64 223.37L377.64 221.57Q377.64 219.93 376.78 219.03Q375.92 218.12 374.24 218.12L374.24 218.12Q372.75 218.12 371.94 218.85Q371.13 219.57 371.13 220.85L371.13 220.85L365.21 220.83L365.19 220.71Q365.04 217.83 367.69 215.74Q370.33 213.65 374.64 213.65L374.64 213.65Q378.71 213.65 381.25 215.72Q383.79 217.79 383.79 221.61L383.79 221.61L383.79 230.99Q383.79 232.59 384.03 234.00Q384.27 235.40 384.80 236.79L384.80 236.79ZM373.06 232.70L373.06 232.70Q374.68 232.70 375.94 231.90Q377.20 231.10 377.64 230.05L377.64 230.05L377.64 226.84L374.22 226.84Q372.26 226.84 371.26 227.81Q370.25 228.79 370.25 230.18L370.25 230.18Q370.25 231.31 371.00 232.00Q371.76 232.70 373.06 232.70ZM388.32 214.07L394.04 214.07L394.31 217.33Q395.44 215.58 397.10 214.62Q398.76 213.65 400.82 213.65L400.82 213.65Q404.26 213.65 406.19 215.81Q408.12 217.98 408.12 222.60L408.12 222.60L408.12 236.79L401.97 236.79L401.97 222.62Q401.97 220.33 401.05 219.37Q400.12 218.42 398.26 218.42L398.26 218.42Q397.04 218.42 396.07 218.91Q395.11 219.40 394.46 220.31L394.46 220.31L394.46 236.79L388.32 236.79L388.32 214.07ZM432.16 236.79L426.03 236.79Q425.70 236.01 425.46 235.15Q425.22 234.29 425.11 233.39L425.11 233.39Q424.17 235.05 422.62 236.14Q421.08 237.23 418.94 237.23L418.94 237.23Q415.37 237.23 413.44 235.39Q411.50 233.56 411.50 230.39L411.50 230.39Q411.50 227.05 414.08 225.21Q416.65 223.37 421.58 223.37L421.58 223.37L425.01 223.37L425.01 221.57Q425.01 219.93 424.14 219.03Q423.28 218.12 421.60 218.12L421.60 218.12Q420.11 218.12 419.30 218.85Q418.50 219.57 418.50 220.85L418.50 220.85L412.58 220.83L412.55 220.71Q412.41 217.83 415.05 215.74Q417.70 213.65 422.00 213.65L422.00 213.65Q426.08 213.65 428.62 215.72Q431.16 217.79 431.16 221.61L431.16 221.61L431.16 230.99Q431.16 232.59 431.40 234.00Q431.64 235.40 432.16 236.79L432.16 236.79ZM420.43 232.70L420.43 232.70Q422.04 232.70 423.30 231.90Q424.56 231.10 425.01 230.05L425.01 230.05L425.01 226.84L421.58 226.84Q419.63 226.84 418.62 227.81Q417.61 228.79 417.61 230.18L417.61 230.18Q417.61 231.31 418.37 232.00Q419.13 232.70 420.43 232.70Z" fill="#999999"/>
<rect xmlns="http://www.w3.org/2000/svg" width="100%" height="100%" fill="#DDDDDD"/>
<path xmlns="http://www.w3.org/2000/svg" d="M125.31 228.81L125.31 228.81Q125.31 227.05 124.06 225.98Q122.81 224.91 119.68 223.96L119.68 223.96Q114.22 222.39 111.43 220.22Q108.64 218.06 108.64 214.30L108.64 214.30Q108.64 210.54 111.84 208.16Q115.04 205.78 120.02 205.78L120.02 205.78Q125.05 205.78 128.23 208.46Q131.40 211.13 131.29 215.06L131.29 215.06L131.25 215.18L125.31 215.18Q125.31 213.06 123.89 211.75Q122.47 210.44 119.91 210.44L119.91 210.44Q117.45 210.44 116.11 211.53Q114.77 212.62 114.77 214.32L114.77 214.32Q114.77 215.88 116.21 216.87Q117.64 217.87 121.17 218.98L121.17 218.98Q126.23 220.39 128.83 222.70Q131.44 225.01 131.44 228.77L131.44 228.77Q131.44 232.70 128.34 234.96Q125.24 237.23 120.16 237.23L120.16 237.23Q115.17 237.23 111.45 234.66Q107.73 232.09 107.84 227.45L107.84 227.45L107.88 227.32L113.84 227.32Q113.84 230.05 115.51 231.32Q117.18 232.59 120.16 232.59L120.16 232.59Q122.66 232.59 123.98 231.56Q125.31 230.53 125.31 228.81ZM142.02 204.04L142.02 236.79L135.89 236.79L135.89 204.04L142.02 204.04ZM153.50 214.07L153.50 236.79L147.37 236.79L147.37 214.07L153.50 214.07ZM153.50 204.04L153.50 208.63L147.37 208.63L147.37 204.04L153.50 204.04ZM172.63 236.79L166.35 227.28L164.67 227.28L164.67 236.79L158.54 236.79L158.54 204.04L164.67 204.04L164.67 222.62L166.19 222.62L171.46 214.07L178.55 214.07L171.29 224.36L179.67 236.79L172.63 236.79ZM201.04 236.79L194.91 236.79Q194.57 236.01 194.33 235.15Q194.09 234.29 193.99 233.39L193.99 233.39Q193.04 235.05 191.50 236.14Q189.95 237.23 187.81 237.23L187.81 237.23Q184.24 237.23 182.31 235.39Q180.38 233.56 180.38 230.39L180.38 230.39Q180.38 227.05 182.95 225.21Q185.52 223.37 190.46 223.37L190.46 223.37L193.88 223.37L193.88 221.57Q193.88 219.93 193.02 219.03Q192.16 218.12 190.48 218.12L190.48 218.12Q188.99 218.12 188.18 218.85Q187.37 219.57 187.37 220.85L187.37 220.85L181.45 220.83L181.43 220.71Q181.28 217.83 183.93 215.74Q186.57 213.65 190.88 213.65L190.88 213.65Q194.95 213.65 197.49 215.72Q200.03 217.79 200.03 221.61L200.03 221.61L200.03 230.99Q200.03 232.59 200.27 234.00Q200.51 235.40 201.04 236.79L201.04 236.79ZM189.30 232.70L189.30 232.70Q190.92 232.70 192.18 231.90Q193.44 231.10 193.88 230.05L193.88 230.05L193.88 226.84L190.46 226.84Q188.51 226.84 187.50 227.81Q186.49 228.79 186.49 230.18L186.49 230.18Q186.49 231.31 187.25 232.00Q188.00 232.70 189.30 232.70ZM215.28 214.07L220.99 214.07L221.26 217.33Q222.39 215.58 224.05 214.62Q225.71 213.65 227.77 213.65L227.77 213.65Q231.21 213.65 233.14 215.81Q235.07 217.98 235.07 222.60L235.07 222.60L235.07 236.79L228.92 236.79L228.92 222.62Q228.92 220.33 228.00 219.37Q227.07 218.42 225.21 218.42L225.21 218.42Q223.99 218.42 223.02 218.91Q222.06 219.40 221.41 220.31L221.41 220.31L221.41 236.79L215.28 236.79L215.28 214.07ZM246.10 214.07L246.10 236.79L239.97 236.79L239.97 214.07L246.10 214.07ZM246.10 204.04L246.10 208.63L239.97 208.63L239.97 204.04L246.10 204.04ZM251.60 214.07L257.75 214.07L257.75 237.63Q257.75 241.62 255.63 243.79Q253.51 245.96 249.73 245.96L249.73 245.96Q248.89 245.96 248.20 245.88Q247.50 245.80 246.73 245.61L246.73 245.61L247.02 240.93Q247.50 241.05 247.99 241.11Q248.47 241.18 249.02 241.18L249.02 241.18Q250.25 241.18 250.93 240.31Q251.60 239.43 251.60 237.63L251.60 237.63L251.60 214.07ZM257.62 204.04L257.62 208.59L251.47 208.59L251.47 204.04L257.62 204.04ZM272.59 237.23L272.59 237.23Q267.68 237.23 264.74 234.08Q261.80 230.93 261.80 226.08L261.80 226.08L261.80 225.24Q261.80 220.18 264.58 216.91Q267.37 213.63 272.05 213.65L272.05 213.65Q276.65 213.65 279.19 216.42Q281.73 219.19 281.73 223.92L281.73 223.92L281.73 227.26L268.16 227.26L268.12 227.38Q268.29 229.63 269.62 231.08Q270.96 232.53 273.25 232.53L273.25 232.53Q275.28 232.53 276.63 232.12Q277.97 231.71 279.57 230.83L279.57 230.83L281.22 234.61Q279.84 235.74 277.59 236.48Q275.34 237.23 272.59 237.23ZM272.05 218.38L272.05 218.38Q270.35 218.38 269.36 219.68Q268.37 220.98 268.14 223.10L268.14 223.10L268.21 223.20L275.72 223.20L275.72 222.66Q275.72 220.71 274.81 219.54Q273.90 218.38 272.05 218.38ZM313.75 217.58L302.85 232.09L314.10 232.09L314.10 236.79L295.23 236.79L295.23 233.18L306.04 218.82L295.56 218.82L295.56 214.07L313.75 214.07L313.75 217.58ZM337.43 236.79L331.30 236.79Q330.96 236.01 330.72 235.15Q330.48 234.29 330.38 233.39L330.38 233.39Q329.43 235.05 327.89 236.14Q326.34 237.23 324.20 237.23L324.20 237.23Q320.63 237.23 318.70 235.39Q316.77 233.56 316.77 230.39L316.77 230.39Q316.77 227.05 319.34 225.21Q321.91 223.37 326.85 223.37L326.85 223.37L330.27 223.37L330.27 221.57Q330.27 219.93 329.41 219.03Q328.55 218.12 326.87 218.12L326.87 218.12Q325.38 218.12 324.57 218.85Q323.76 219.57 323.76 220.85L323.76 220.85L317.84 220.83L317.82 220.71Q317.67 217.83 320.32 215.74Q322.96 213.65 327.27 213.65L327.27 213.65Q331.34 213.65 333.88 215.72Q336.42 217.79 336.42 221.61L336.42 221.61L336.42 230.99Q336.42 232.59 336.66 234.00Q336.91 235.40 337.43 236.79L337.43 236.79ZM325.69 232.70L325.69 232.70Q327.31 232.70 328.57 231.90Q329.83 231.10 330.27 230.05L330.27 230.05L330.27 226.84L326.85 226.84Q324.90 226.84 323.89 227.81Q322.88 228.79 322.88 230.18L322.88 230.18Q322.88 231.31 323.64 232.00Q324.39 232.70 325.69 232.70ZM340.12 226.06L340.12 225.62Q340.12 220.24 342.44 216.95Q344.76 213.65 348.98 213.65L348.98 213.65Q350.68 213.65 352.04 214.39Q353.41 215.12 354.44 216.49L354.44 216.49L354.44 204.04L360.59 204.04L360.59 236.79L355.32 236.79L354.82 234.02Q353.74 235.59 352.29 236.41Q350.83 237.23 348.94 237.23L348.94 237.23Q344.76 237.23 342.44 234.16Q340.12 231.10 340.12 226.06L340.12 226.06ZM346.23 225.62L346.23 226.06Q346.23 229.04 347.24 230.75Q348.24 232.46 350.51 232.46L350.51 232.46Q351.83 232.46 352.82 231.93Q353.81 231.39 354.44 230.36L354.44 230.36L354.44 220.69Q353.81 219.61 352.83 219.02Q351.85 218.42 350.55 218.42L350.55 218.42Q348.31 218.42 347.27 220.41Q346.23 222.41 346.23 225.62L346.23 225.62ZM384.80 236.79L378.67 236.79Q378.33 236.01 378.09 235.15Q377.85 234.29 377.74 233.39L377.74 233.39Q376.80 235.05 375.25 236.14Q373.71 237.23 371.57 237.23L371.57 237.23Q368.00 237.23 366.07 235.39Q364.14 233.56 364.14 230.39L364.14 230.39Q364.14 227.05 366.71 225.21Q369.28 223.37 374.22 223.37L374.22 223.37L377.64 223.37L377.64 221.57Q377.64 219.93 376.78 219.03Q375.92 218.12 374.24 218.12L374.24 218.12Q372.75 218.12 371.94 218.85Q371.13 219.57 371.13 220.85L371.13 220.85L365.21 220.83L365.19 220.71Q365.04 217.83 367.69 215.74Q370.33 213.65 374.64 213.65L374.64 213.65Q378.71 213.65 381.25 215.72Q383.79 217.79 383.79 221.61L383.79 221.61L383.79 230.99Q383.79 232.59 384.03 234.00Q384.27 235.40 384.80 236.79L384.80 236.79ZM373.06 232.70L373.06 232.70Q374.68 232.70 375.94 231.90Q377.20 231.10 377.64 230.05L377.64 230.05L377.64 226.84L374.22 226.84Q372.26 226.84 371.26 227.81Q370.25 228.79 370.25 230.18L370.25 230.18Q370.25 231.31 371.00 232.00Q371.76 232.70 373.06 232.70ZM388.32 214.07L394.04 214.07L394.31 217.33Q395.44 215.58 397.10 214.62Q398.76 213.65 400.82 213.65L400.82 213.65Q404.26 213.65 406.19 215.81Q408.12 217.98 408.12 222.60L408.12 222.60L408.12 236.79L401.97 236.79L401.97 222.62Q401.97 220.33 401.05 219.37Q400.12 218.42 398.26 218.42L398.26 218.42Q397.04 218.42 396.07 218.91Q395.11 219.40 394.46 220.31L394.46 220.31L394.46 236.79L388.32 236.79L388.32 214.07ZM432.16 236.79L426.03 236.79Q425.70 236.01 425.46 235.15Q425.22 234.29 425.11 233.39L425.11 233.39Q424.17 235.05 422.62 236.14Q421.08 237.23 418.94 237.23L418.94 237.23Q415.37 237.23 413.44 235.39Q411.50 233.56 411.50 230.39L411.50 230.39Q411.50 227.05 414.08 225.21Q416.65 223.37 421.58 223.37L421.58 223.37L425.01 223.37L425.01 221.57Q425.01 219.93 424.14 219.03Q423.28 218.12 421.60 218.12L421.60 218.12Q420.11 218.12 419.30 218.85Q418.50 219.57 418.50 220.85L418.50 220.85L412.58 220.83L412.55 220.71Q412.41 217.83 415.05 215.74Q417.70 213.65 422.00 213.65L422.00 213.65Q426.08 213.65 428.62 215.72Q431.16 217.79 431.16 221.61L431.16 221.61L431.16 230.99Q431.16 232.59 431.40 234.00Q431.64 235.40 432.16 236.79L432.16 236.79ZM420.43 232.70L420.43 232.70Q422.04 232.70 423.30 231.90Q424.56 231.10 425.01 230.05L425.01 230.05L425.01 226.84L421.58 226.84Q419.63 226.84 418.62 227.81Q417.61 228.79 417.61 230.18L417.61 230.18Q417.61 231.31 418.37 232.00Q419.13 232.70 420.43 232.70Z" fill="#999999"/>
</svg>